<svg width="200" height="80" viewBox="0 0 200 80" fill="none" xmlns="http://www.w3.org/2000/svg">
  <!-- Background Circle -->
  <circle cx="40" cy="40" r="35" fill="#41980a" opacity="0.1"/>
  
  <!-- Building Icon -->
  <g transform="translate(15, 15)">
    <!-- Main Building -->
    <rect x="10" y="15" width="30" height="35" fill="#41980a" rx="2"/>
    
    <!-- Windows -->
    <rect x="15" y="20" width="6" height="6" fill="white" opacity="0.9" rx="1"/>
    <rect x="24" y="20" width="6" height="6" fill="white" opacity="0.9" rx="1"/>
    <rect x="15" y="30" width="6" height="6" fill="white" opacity="0.9" rx="1"/>
    <rect x="24" y="30" width="6" height="6" fill="white" opacity="0.9" rx="1"/>
    <rect x="15" y="40" width="6" height="6" fill="white" opacity="0.9" rx="1"/>
    <rect x="24" y="40" width="6" height="6" fill="white" opacity="0.9" rx="1"/>
    
    <!-- Door -->
    <rect x="19" y="44" width="8" height="6" fill="white" opacity="0.9" rx="1"/>
    
    <!-- Roof -->
    <path d="M 8 15 L 25 5 L 42 15 Z" fill="#2d6b07"/>
    
    <!-- Side Buildings -->
    <rect x="2" y="25" width="6" height="25" fill="#5cb917" rx="1"/>
    <rect x="42" y="25" width="6" height="25" fill="#5cb917" rx="1"/>
  </g>
  
  <!-- Text -->
  <text x="85" y="35" font-family="Arial, sans-serif" font-size="22" font-weight="bold" fill="#41980a">
    Jayshree
  </text>
  <text x="85" y="55" font-family="Arial, sans-serif" font-size="18" font-weight="600" fill="#2d6b07">
    Properties
  </text>
</svg>
